<svg width="163" height="60" viewBox="0 0 163 60" fill="none" xmlns="http://www.w3.org/2000/svg">
<path d="M109.794 3.53793C108.847 5.50602 106.58 10.2643 104.737 14.1257C102.893 18.0121 101.324 21.176 101.249 21.176C101.174 21.176 100.775 20.2542 100.327 19.1332L99.5298 17.1153L102.146 11.485C103.615 8.39587 104.961 5.48111 105.135 5.03268L105.509 4.21057L103.341 4.2853L101.199 4.36004L99.5049 8.59517L97.8108 12.8303L97.4621 11.9584C97.2628 11.485 96.4905 9.54185 95.7431 7.67341L94.3978 4.23548H92.3052C90.4866 4.23548 90.2624 4.2853 90.3869 4.65899C90.4866 4.8832 91.8069 7.74814 93.3266 11.0117C96.4407 17.6882 96.2912 16.8661 94.8961 20.0549L94.348 21.3006L90.088 12.7556L85.803 4.23548H83.6605H81.543L82.2654 5.53093C82.664 6.25339 85.3297 11.3854 88.1946 16.9409C91.0346 22.4964 93.6255 27.4539 93.9245 27.9771L94.4477 28.9238L96.0171 25.3613C96.8891 23.3932 97.6614 21.7241 97.761 21.5995C97.8358 21.4999 98.2842 22.2971 98.7575 23.3434C99.2309 24.4146 99.9782 26.1336 100.452 27.155L101.299 29.0234L108.498 14.6987C112.434 6.82638 115.673 0.299301 115.673 0.174738C115.698 0.0750885 114.751 0.000350952 113.605 0.000350952H111.513L109.794 3.53793Z" fill="#0B3B74"/>
<path d="M68.6125 3.9131C62.6086 4.3117 58.0745 5.1089 52.5937 6.72821C46.9635 8.37244 43.6501 9.99175 38.9168 13.3799C35.2546 15.9957 31.5177 20.0813 27.2577 26.16C26.2363 27.6049 25.3893 28.8256 25.3394 28.8754C25.2149 29.0498 23.7699 28.3523 22.7734 27.6298C22.2254 27.2312 21.3783 26.2845 20.8552 25.5122L19.9334 24.1421L19.6096 24.7898C18.9867 25.9358 18.2892 29.1993 18.2892 30.8435V32.4628L16.62 32.3134C14.3779 32.139 11.2389 31.1176 8.19962 29.5979C5.70836 28.3523 1.14937 25.4624 0.601299 24.7898C0.426911 24.5905 0.177786 24.4161 0.0532231 24.4161C-0.245727 24.4161 0.700949 26.0603 3.24203 29.9218C5.88275 33.9576 8.67295 36.9222 11.787 38.9899C13.9295 40.4099 20.2324 43.6735 22.0261 44.3212C22.7236 44.5454 22.7236 44.5454 22.8731 43.25C23.0475 41.9545 23.8945 38.4169 24.0938 38.2176C24.1436 38.1678 24.9159 38.4418 25.7879 38.8654C27.7559 39.7622 30.6707 40.4348 30.9198 40.0113C31.0195 39.8619 31.5177 38.8903 32.016 37.8689L32.9128 36.0004L33.6104 37.3706C35.0802 40.2854 38.6925 43.0756 42.1305 43.9724C43.974 44.4458 47.1877 44.4458 49.0561 43.9724C53.6151 42.7766 57.5762 38.8155 58.772 34.2565C59.2454 32.3881 59.2454 29.1744 58.772 27.3309C57.5264 22.5477 53.4408 18.5367 48.7074 17.4406L47.3372 17.1167L48.0098 16.5437C49.2804 15.4476 53.366 13.0809 58.0247 10.7142C63.0072 8.17314 65.7475 7.02716 71.4774 4.98434L74.9652 3.76362L72.3494 3.78854C70.9044 3.81345 69.2353 3.86327 68.6125 3.9131ZM47.96 18.7859C55.359 20.3554 59.6191 28.0782 56.9534 35.0787C55.7825 38.1429 53.8394 40.2605 50.8249 41.7303C44.8958 44.67 37.4718 42.0791 34.6069 36.1001L33.7349 34.3064L34.8062 32.3134L35.8525 30.3453L36.0269 31.7653C36.5501 35.7513 39.6143 38.965 43.5505 39.6127C47.4368 40.2355 51.4228 38.0931 53.1667 34.4558C53.9639 32.7867 54.1383 29.9218 53.5404 28.1281C51.9709 23.3449 47.5116 20.9283 42.4543 22.0992C41.9561 22.1989 42.2301 21.8252 43.7 20.3304C44.7214 19.2841 45.7179 18.4371 45.9421 18.4371C46.1414 18.4371 47.0631 18.6115 47.96 18.7859ZM46.9386 27.3807C48.0098 27.9288 48.9316 29.4733 48.9316 30.6691C48.9316 31.1674 48.6825 32.0393 48.3586 32.6372C47.0631 35.1036 43.7498 35.3527 41.8813 33.1355C40.5361 31.5411 40.7603 29.3239 42.4543 27.8042C43.3263 27.007 43.6003 26.9074 44.7712 26.9074C45.5684 26.9074 46.4154 27.0817 46.9386 27.3807Z" fill="#0B3B74"/>
<path d="M116.695 15.8219V27.4062H118.315H119.934V15.8219V4.23761H118.315H116.695V15.8219Z" fill="#0B3B74"/>
<path d="M124.916 4.56103C123.72 4.98454 122.275 6.97755 121.901 8.69651C121.677 9.79266 121.702 10.3407 122.026 11.6611C123.023 15.672 124.841 16.6685 131.194 16.6934C133.237 16.6934 133.436 16.7433 134.183 17.4159C134.856 18.0138 134.981 18.3127 135.08 19.6082C135.23 21.5763 134.806 22.8219 133.785 23.4447C133.087 23.8682 132.489 23.9181 127.332 23.9181H121.652L121.727 25.5872L121.802 27.2812H128.155C134.308 27.2812 134.532 27.2563 135.678 26.7083C137.123 25.9858 137.696 25.2384 138.269 23.2952C139.166 20.2808 138.792 17.1668 137.198 14.6506C136.151 12.9566 135.778 12.832 131.144 12.7573C128.877 12.7323 126.784 12.6327 126.485 12.5829C125.813 12.4334 125.165 11.2625 125.165 10.2162C125.165 9.29441 125.738 8.09861 126.286 7.8744C126.51 7.79966 128.827 7.72492 131.418 7.72492H136.127V5.98105V4.23717L130.97 4.26208C127.631 4.26208 125.489 4.36173 124.916 4.56103Z" fill="#0B3B74"/>
<path d="M140.609 15.8219V27.4062H151.695H162.782V25.6624V23.9185H153.315H143.848V19.6834V15.4482H148.581H153.315V13.7044V11.9605H148.581H143.848V9.84293V7.72536H148.581H153.315V5.98149V4.23761H146.962H140.609V15.8219Z" fill="#0B3B74"/>
<path d="M82.8378 41.033C80.0476 46.7628 77.7058 51.5461 77.5813 51.6457C77.4816 51.7703 75.7876 48.0832 73.8195 43.4993L70.2321 35.1287H67.691H65.125L71.2286 47.3358C74.5918 54.0622 77.4069 59.543 77.4816 59.543C77.6062 59.543 91.7814 30.9932 91.7814 30.7441C91.7814 30.6943 90.9095 30.6444 89.8382 30.6444H87.8701L82.8378 41.033Z" fill="#0B3B74"/>
<path d="M159.42 30.9421C159.345 31.1164 159.27 35.3017 159.245 40.2095L159.171 49.1531L153.715 42.1278C148.508 35.4263 148.234 35.1274 147.437 35.1274H146.59V46.5871V58.0469H148.209H149.828L149.878 50.2742L149.953 42.5015L155.509 50.2742C160.964 57.8974 161.064 58.0469 161.911 58.0469H162.783V44.345V30.6431H161.164C160.092 30.6431 159.495 30.7428 159.42 30.9421Z" fill="#0B3B74"/>
<path d="M91.0352 46.5871V58.0469H92.779H94.5229V46.5871V35.1274H92.779H91.0352V46.5871Z" fill="#0B3B74"/>
<path d="M100.674 35.501C97.3109 37.2449 96.9621 43.2987 100.076 45.9643C101.297 47.0106 102.692 47.3345 106.13 47.3345C109.319 47.3345 110.315 47.6833 110.838 48.9289C111.561 50.6229 111.162 53.164 110.091 54.0609C109.742 54.3598 108.497 54.4595 103.763 54.5591L97.8839 54.6837L97.8091 56.3777L97.7344 58.0469H103.813C108.497 58.0469 110.166 57.9721 111.137 57.6732C113.33 57.0255 114.426 55.2068 114.849 51.6194C115.024 49.8756 114.525 47.6085 113.529 45.765C112.433 43.7969 112.283 43.7471 107.027 43.5976L102.443 43.4731L101.845 42.7755C101.023 41.8039 101.023 40.1597 101.845 39.1881L102.443 38.4905L107.326 38.4158L112.209 38.3411V36.7218V35.1274H106.803C102.518 35.1274 101.222 35.2021 100.674 35.501Z" fill="#0B3B74"/>
<path d="M116.695 46.5871V58.0469H118.315H119.934V46.5871V35.1274H118.315H116.695V46.5871Z" fill="#0B3B74"/>
<path d="M131.267 35.4273C125.488 36.1996 120.854 42.4526 121.85 48.1825C122.722 53.3394 127.082 57.3752 132.065 57.724C135.702 57.9731 138.592 56.8521 141.083 54.1615C144.496 50.5243 145.193 46.04 143.051 41.6554C140.884 37.2708 136.175 34.7546 131.267 35.4273ZM136.524 39.1392C141.706 41.6305 142.852 48.332 138.816 52.3678C137.246 53.9622 135.652 54.6597 133.385 54.7594C129.997 54.9338 127.331 53.3892 125.637 50.2751C124.865 48.8302 124.79 48.5313 124.79 46.5881C124.815 44.0719 125.338 42.7267 126.933 40.9828C128.228 39.5877 129.2 38.9898 130.919 38.4915C132.737 37.9933 134.631 38.2175 136.524 39.1392Z" fill="#0B3B74"/>
<path d="M31.4181 48.5814C30.3468 50.0761 29.3753 51.3716 29.2756 51.4214C29.1012 51.546 27.8805 51.1225 24.0689 49.6028L22.7734 49.0796L23.1471 50.0263C23.9692 51.9695 25.6882 54.7099 26.884 55.9306C27.9802 57.0516 30.7704 58.7457 32.7634 59.4931L33.3613 59.7422V52.7916C33.3613 48.9551 33.3613 45.841 33.3613 45.841C33.3363 45.841 32.4644 47.0617 31.4181 48.5814Z" fill="#0B3B74"/>
</svg>
