<svg width="24" height="23" viewBox="0 0 24 23" fill="none" xmlns="http://www.w3.org/2000/svg">
<path d="M22.8631 5.1647C22.4242 5.59908 21.9982 6.02069 21.9853 6.4423C21.9466 6.85113 22.3855 7.27274 22.7986 7.6688C23.4183 8.3076 24.025 8.88252 23.9992 9.50854C23.9734 10.1346 23.315 10.7861 22.6566 11.4249L17.3249 16.7142L15.4917 14.9L20.9783 9.48299L19.739 8.25649L17.9058 10.0579L13.0647 5.26691L18.022 0.373698C18.5255 -0.124566 19.3646 -0.124566 19.8423 0.373698L22.8631 3.36328C23.3666 3.836 23.3666 4.66644 22.8631 5.1647ZM0 18.209L12.3417 5.98236L17.1829 10.7734L4.84115 23H0V18.209Z" fill="#FF3366"/>
</svg>
