<svg width="64" height="65" viewBox="0 0 64 65" fill="none" xmlns="http://www.w3.org/2000/svg">
<path d="M62.1577 39.8125L39.249 63.05C38.6082 63.7 37.8873 64.1875 37.0863 64.5125C36.2853 64.8375 35.4843 65 34.6833 65C33.8823 65 33.0813 64.8375 32.2803 64.5125C31.4793 64.1875 30.7584 63.7 30.1176 63.05L1.8423 34.3687C1.2549 33.7729 0.801001 33.0828 0.480601 32.2985C0.1602 31.5142 0 30.6876 0 29.8188V6.5C0 4.7125 0.627985 3.18283 1.88395 1.911C3.13992 0.639167 4.64794 0.00216667 6.40801 0H29.3967C30.2511 0 31.0788 0.176584 31.8798 0.52975C32.6808 0.882917 33.375 1.35633 33.9624 1.95L62.1577 30.6313C62.7985 31.2812 63.2663 32.0125 63.561 32.825C63.8558 33.6375 64.0021 34.45 64 35.2625C63.9978 36.075 63.8515 36.8745 63.561 37.661C63.2705 38.4475 62.8027 39.1647 62.1577 39.8125ZM34.6833 58.5L57.592 35.2625L29.3166 6.5H6.40801V29.7375L34.6833 58.5ZM14.418 19.5C15.753 19.5 16.8883 19.0266 17.8239 18.0798C18.7594 17.1329 19.2262 15.9813 19.224 14.625C19.2219 13.2687 18.7552 12.1182 17.8239 11.1735C16.8926 10.2288 15.7573 9.75433 14.418 9.75C13.0787 9.74567 11.9445 10.2202 11.0154 11.1735C10.0862 12.1268 9.61842 13.2773 9.61201 14.625C9.6056 15.9727 10.0734 17.1243 11.0154 18.0798C11.9573 19.0352 13.0916 19.5087 14.418 19.5Z" fill="#0099FF"/>
</svg>
