<svg width="76" height="56" viewBox="0 0 76 56" fill="none" xmlns="http://www.w3.org/2000/svg">
<path d="M73.9273 40.9756H70.4727V7.5122C70.4727 5.51984 69.672 3.60908 68.2467 2.20027C66.8215 0.791461 64.8884 0 62.8727 0H13.1273C11.1116 0 9.17854 0.791461 7.75326 2.20027C6.32798 3.60908 5.52727 5.51984 5.52727 7.5122V40.9756H2.07273C1.52301 40.9756 0.995799 41.1915 0.607087 41.5757C0.218376 41.9599 0 42.481 0 43.0244V48.4878C0 50.4802 0.800712 52.3909 2.22599 53.7997C3.65126 55.2085 5.58435 56 7.6 56H68.4C70.4156 56 72.3487 55.2085 73.774 53.7997C75.1993 52.3909 76 50.4802 76 48.4878V43.0244C76 42.481 75.7816 41.9599 75.3929 41.5757C75.0042 41.1915 74.477 40.9756 73.9273 40.9756ZM9.67273 7.5122C9.67273 6.60658 10.0367 5.73805 10.6845 5.09768C11.3324 4.45732 12.2111 4.09756 13.1273 4.09756H62.8727C63.7889 4.09756 64.6676 4.45732 65.3155 5.09768C65.9633 5.73805 66.3273 6.60658 66.3273 7.5122V40.9756H9.67273V7.5122ZM71.8545 48.4878C71.8545 49.3934 71.4906 50.262 70.8427 50.9023C70.1949 51.5427 69.3162 51.9024 68.4 51.9024H7.6C6.6838 51.9024 5.80512 51.5427 5.15727 50.9023C4.50941 50.262 4.14545 49.3934 4.14545 48.4878V45.0732H71.8545V48.4878ZM45.6 12.9756C45.6 13.519 45.3816 14.0401 44.9929 14.4243C44.6042 14.8085 44.077 15.0244 43.5273 15.0244H32.4727C31.923 15.0244 31.3958 14.8085 31.0071 14.4243C30.6184 14.0401 30.4 13.519 30.4 12.9756C30.4 12.4322 30.6184 11.9111 31.0071 11.5269C31.3958 11.1427 31.923 10.9268 32.4727 10.9268H43.5273C44.077 10.9268 44.6042 11.1427 44.9929 11.5269C45.3816 11.9111 45.6 12.4322 45.6 12.9756Z" fill="#0099FF"/>
</svg>
