<svg width="78" height="78" viewBox="0 0 78 78" fill="none" xmlns="http://www.w3.org/2000/svg">
<path d="M26.0001 0L17.3334 8.67769L8.66671 17.3554L17.3334 26.0331L26.0001 34.7108L29.0335 31.6736L32.0668 28.6364L26.4335 22.9959L20.8001 17.3554L26.4335 11.7149L32.0668 6.07438L29.0335 3.03719L26.0001 0ZM52.0003 0L48.9669 3.03719L45.9336 6.07438L51.567 11.7149L57.2003 17.3554L51.567 22.9959L45.9336 28.6364L48.9669 31.6736L52.0003 34.7108L60.667 26.0331L69.3337 17.3554L60.667 8.67769L52.0003 0ZM77.9008 65.4732L76.2194 58.8261C76.1118 58.4023 75.9196 58.0047 75.6545 57.6572C75.3894 57.3097 75.0568 57.0196 74.6767 56.8042C74.2948 56.5854 73.8731 56.4452 73.4363 56.3915C72.9996 56.3379 72.5565 56.372 72.1331 56.4918L52.4076 62.0629L39.0002 56.405L55.9653 52.0531C57.1235 51.0186 57.9624 49.6743 58.3833 48.1785L57.053 43.3885L21.6668 47.7273H0V73.7604H21.6668L40.9719 77.943C42.0214 78.0386 43.0784 78.0139 44.1222 77.8693L75.5824 69.3912C76.4077 69.1699 77.1138 68.6342 77.5498 67.8986C77.765 67.5366 77.9068 67.1357 77.9671 66.7187C78.0273 66.3018 78.0048 65.8814 77.9008 65.4732ZM13.0001 69.4215H4.33336V52.0661H13.0001V69.4215ZM42.9956 73.6823C42.8003 73.7332 42.5994 73.7595 42.3976 73.7604C42.2301 73.761 42.063 73.7435 41.8992 73.7083L21.6668 69.261V52.1529L53.426 48.2133L30.3335 56.405L50.7913 66.0893L52.165 66.6403L53.5863 66.2368L72.2891 60.9564L73.4331 65.4775L42.9956 73.6823Z" fill="#0099FF"/>
</svg>
