<svg width="56" height="50" viewBox="0 0 56 50" fill="none" xmlns="http://www.w3.org/2000/svg">
<path d="M27.5556 27.5556H27.5811M37.7778 12.2222V7.11111C37.7778 5.75556 37.2393 4.45553 36.2808 3.49701C35.3222 2.53849 34.0222 2 32.6667 2H22.4444C21.0889 2 19.7889 2.53849 18.8303 3.49701C17.8718 4.45553 17.3333 5.75556 17.3333 7.11111V12.2222M53.1111 30.1111C45.5282 35.1174 36.642 37.7862 27.5556 37.7862C18.4692 37.7862 9.58286 35.1174 2 30.1111" stroke="#0099FF" stroke-width="4" stroke-linecap="round" stroke-linejoin="round"/>
<path d="M48 12.2227H7.11111C4.28832 12.2227 2 14.511 2 17.3338V42.8893C2 45.7121 4.28832 48.0004 7.11111 48.0004H48C50.8228 48.0004 53.1111 45.7121 53.1111 42.8893V17.3338C53.1111 14.511 50.8228 12.2227 48 12.2227Z" stroke="#0099FF" stroke-width="4" stroke-linecap="round" stroke-linejoin="round"/>
</svg>
