<svg width="76" height="56" viewBox="0 0 76 56" fill="none" xmlns="http://www.w3.org/2000/svg">
<path d="M2 4.50781L14.1436 11.039L24.9921 9.16822C26.7983 8.85568 28.6513 8.94934 30.4168 9.4424C32.1822 9.93546 33.8157 10.8155 35.1985 12.0187M61.4119 38.8078L44.2426 51.0068C42.3992 52.3163 40.1991 53.03 37.938 53.0517C35.677 53.0735 33.4635 52.4024 31.5953 51.1285L2 30.9537" stroke="#0099FF" stroke-width="4" stroke-linecap="round" stroke-linejoin="round"/>
<path d="M73.1491 30.8259L61 39.1283L42.148 23.9073L35.2127 28.9496C33.8553 29.9351 32.1685 30.3554 30.5073 30.1221C28.8462 29.8888 27.3404 29.02 26.307 27.6987C25.2778 26.3786 24.8003 24.711 24.9747 23.0462C25.1491 21.3814 25.9619 19.849 27.2424 18.7708L34.4655 12.699C36.1776 11.2578 38.1633 10.1776 40.3034 9.52318C42.4435 8.86879 44.6938 8.65375 46.9191 8.89099L58.1716 10.0976L73.1491 2" stroke="#0099FF" stroke-width="4" stroke-linecap="round" stroke-linejoin="round"/>
<path d="M42.1494 23.9488C46.6881 27.9893 53.1196 25.9248 55.5107 22.626" stroke="#0099FF" stroke-width="4" stroke-linecap="round" stroke-linejoin="round"/>
</svg>
